HIERARCHY
ROOT hip
{
  OFFSET 0 0 0
  CHANNELS 6 Xposition Yposition Zposition Zrotation Yrotation Xrotation
  JOINT abdomen
  {
    OFFSET 0 20.6881 -0.73152
    CHANNELS 3 Zrotation Xrotation Yrotation
    JOINT chest
    {
      OFFSET 0 11.7043 -0.48768
      CHANNELS 3 Zrotation Xrotation Yrotation
      JOINT neck
      {
        OFFSET 0 22.1894 -2.19456
        CHANNELS 3 Zrotation Xrotation Yrotation
        JOINT head
        {
          OFFSET -0.24384 7.07133 1.2192
          CHANNELS 3 Zrotation Xrotation Yrotation
          JOINT leftEye
          {
            OFFSET 4.14528 8.04674 8.04672
            CHANNELS 3 Zrotation Xrotation Yrotation
            End Site
            {
              OFFSET 1 0 0
            }
          }
          JOINT rightEye
          {
            OFFSET -3.6576 8.04674 8.04672
            CHANNELS 3 Zrotation Xrotation Yrotation
            End Site
            {
              OFFSET 1 0 0
            }
          }
        }
      }
      JOINT rCollar
      {
        OFFSET -2.68224 19.2634 -4.8768
        CHANNELS 3 Zrotation Xrotation Yrotation
        JOINT rShldr
        {
          OFFSET -8.77824 -1.95073 1.46304
          CHANNELS 3 Zrotation Xrotation Yrotation
          JOINT rForeArm
          {
            OFFSET -28.1742 -1.7115 0.48768
            CHANNELS 3 Zrotation Xrotation Yrotation
            JOINT rHand
            {
              OFFSET -22.5879 0.773209 7.07136
              CHANNELS 3 Zrotation Xrotation Yrotation
              JOINT rThumb1
              {
                OFFSET -1.2192 -0.487915 3.41376
                CHANNELS 3 Zrotation Xrotation Yrotation
                JOINT rThumb2
                {
                  OFFSET -3.37035 -0.52449 3.41376
                  CHANNELS 3 Zrotation Xrotation Yrotation
                  End Site
                  {
                    OFFSET -1.78271 -1.18214 1.43049
                  }
                }
              }
              JOINT rIndex1
              {
                OFFSET -7.75947 0.938293 5.60832
                CHANNELS 3 Zrotation Xrotation Yrotation
                JOINT rIndex2
                {
                  OFFSET -2.54057 -0.884171 1.56538
                  CHANNELS 3 Zrotation Xrotation Yrotation
                  End Site
                  {
                    OFFSET -1.62519 -0.234802 1.16502
                  }
                }
              }
              JOINT rMid1
              {
                OFFSET -8.24714 1.18213 3.41376
                CHANNELS 3 Zrotation Xrotation Yrotation
                JOINT rMid2
                {
                  OFFSET -3.10165 -0.590103 1.0647
                  CHANNELS 3 Zrotation Xrotation Yrotation
                  End Site
                  {
                    OFFSET -2.48547 -0.328903 0.83742
                  }
                }
              }
              JOINT rRing1
              {
                OFFSET -8.82822 0.546677 1.51678
                CHANNELS 3 Zrotation Xrotation Yrotation
                JOINT rRing2
                {
                  OFFSET -2.60934 -0.819778 -0.0198488
                  CHANNELS 3 Zrotation Xrotation Yrotation
                  End Site
                  {
                    OFFSET -2.33842 -0.294052 0.168128
                  }
                }
              }
              JOINT rPinky1
              {
                OFFSET -8.27202 -0.0477905 -0.4584
                CHANNELS 3 Zrotation Xrotation Yrotation
                JOINT rPinky2
                {
                  OFFSET -1.82734 -0.647385 -0.700984
                  CHANNELS 3 Zrotation Xrotation Yrotation
                  End Site
                  {
                    OFFSET -1.69225 -0.51767 -0.607171
                  }
                }
              }
            }
          }
        }
      }
      JOINT lCollar
      {
        OFFSET 2.68224 19.2634 -4.8768
        CHANNELS 3 Zrotation Xrotation Yrotation
        JOINT lShldr
        {
          OFFSET 8.77824 -1.95073 1.46304
          CHANNELS 3 Zrotation Xrotation Yrotation
          JOINT lForeArm
          {
            OFFSET 28.1742 -1.7115 0.48768
            CHANNELS 3 Zrotation Xrotation Yrotation
            JOINT lHand
            {
              OFFSET 22.5879 0.773209 7.07136
              CHANNELS 3 Zrotation Xrotation Yrotation
              JOINT lThumb1
              {
                OFFSET 1.2192 -0.487915 3.41376
                CHANNELS 3 Zrotation Xrotation Yrotation
                JOINT lThumb2
                {
                  OFFSET 3.37035 -0.52449 3.41376
                  CHANNELS 3 Zrotation Xrotation Yrotation
                  End Site
                  {
                    OFFSET 1.78271 -1.18214 1.43049
                  }
                }
              }
              JOINT lIndex1
              {
                OFFSET 7.75947 0.938293 5.60832
                CHANNELS 3 Zrotation Xrotation Yrotation
                JOINT lIndex2
                {
                  OFFSET 2.54057 -0.884171 1.56538
                  CHANNELS 3 Zrotation Xrotation Yrotation
                  End Site
                  {
                    OFFSET 1.62519 -0.234802 1.16502
                  }
                }
              }
              JOINT lMid1
              {
                OFFSET 8.24714 1.18213 3.41376
                CHANNELS 3 Zrotation Xrotation Yrotation
                JOINT lMid2
                {
                  OFFSET 3.10165 -0.590103 1.0647
                  CHANNELS 3 Zrotation Xrotation Yrotation
                  End Site
                  {
                    OFFSET 2.48547 -0.328903 0.83742
                  }
                }
              }
              JOINT lRing1
              {
                OFFSET 8.82822 0.546677 1.51678
                CHANNELS 3 Zrotation Xrotation Yrotation
                JOINT lRing2
                {
                  OFFSET 2.60934 -0.819778 -0.0198488
                  CHANNELS 3 Zrotation Xrotation Yrotation
                  End Site
                  {
                    OFFSET 2.33842 -0.294052 0.168128
                  }
                }
              }
              JOINT lPinky1
              {
                OFFSET 8.27202 -0.0477905 -0.4584
                CHANNELS 3 Zrotation Xrotation Yrotation
                JOINT lPinky2
                {
                  OFFSET 1.82734 -0.647385 -0.700984
                  CHANNELS 3 Zrotation Xrotation Yrotation
                  End Site
                  {
                    OFFSET 1.69225 -0.51767 -0.607171
                  }
                }
              }
            }
          }
        }
      }
    }
  }
  JOINT rButtock
  {
    OFFSET -8.77824 4.35084 1.2192
    CHANNELS 3 Zrotation Xrotation Yrotation
    JOINT rThigh
    {
      OFFSET 0 -1.70687 -2.19456
      CHANNELS 3 Zrotation Xrotation Yrotation
      JOINT rShin
      {
        OFFSET 0 -36.8199 0.73152
        CHANNELS 3 Zrotation Xrotation Yrotation
        JOINT rFoot
        {
          OFFSET 0.73152 -45.1104 -5.12064
          CHANNELS 3 Zrotation Xrotation Yrotation
          End Site
          {
            OFFSET -1.1221 -3.69964 12.103
          }
        }
      }
    }
  }
  JOINT lButtock
  {
    OFFSET 8.77824 4.35084 1.2192
    CHANNELS 3 Zrotation Xrotation Yrotation
    JOINT lThigh
    {
      OFFSET 0 -1.70687 -2.19456
      CHANNELS 3 Zrotation Xrotation Yrotation
      JOINT lShin
      {
        OFFSET 0 -36.8199 0.73152
        CHANNELS 3 Zrotation Xrotation Yrotation
        JOINT lFoot
        {
          OFFSET -0.73152 -45.1104 -5.12064
          CHANNELS 3 Zrotation Xrotation Yrotation
          End Site
          {
            OFFSET 1.1221 -3.69964 12.103
          }
        }
      }
    }
  }
}
MOTION
Frames:	7
Frame Time:	0.00833333
-222.025 83.282 -114.755 0.0 0.0 0.0 -2.96288 0.00183607 -0.0799157 -0.816455 0.0169088 -0.141252 -3.0082e-14 -1.59028e-15 8.94531e-16 -9.16894e-14 -6.36111e-15 2.78143e-15 -0.0 0.0 0.0 -0.0 0.0 0.0 -1.56568e-14 -1.13564e-16 5.46658e-16 -3.16944e-13 -2.42269e-15 9.1441e-15 -5.51896e-12 1.56424e-12 2.44903e-13 -6.31823e-11 -2.09936e-12 1.71432e-12 -1.49038e-10 -1.1606e-12 4.28421e-12 -2.5739e-10 -2.00375e-12 7.39877e-12 -1.4903e-10 -1.15812e-12 4.27149e-12 7.73091 5.47488 0.417314 -1.49037e-10 -1.16021e-12 4.28103e-12 2.90554 0.965183 0.102902 -1.49025e-10 -1.16001e-12 4.28421e-12 10.2786 0.731801 0.0259123 -1.49043e-10 -1.15812e-12 4.28739e-12 2.22167 -0.733487 -0.20892 -1.56528e-14 -1.21523e-16 2.48481e-16 -3.22931e-13 -2.12451e-15 7.55382e-15 -5.52373e-12 -1.72823e-12 2.00375e-13 -6.31827e-11 1.19686e-12 1.76839e-12 -1.4905e-10 -1.1587e-12 4.27785e-12 -2.57402e-10 -2.00057e-12 7.39161e-12 -1.49055e-10 -1.15454e-12 4.29375e-12 -7.73091 5.47488 -0.417314 -1.49051e-10 -1.15822e-12 4.28103e-12 -2.90554 0.965183 -0.102902 -1.49062e-10 -1.15802e-12 4.27944e-12 -10.2786 0.731801 -0.0259123 -1.49047e-10 -1.15971e-12 4.27149e-12 -2.22167 -0.733487 0.20892 -2.03217e-16 0.0 -3.88251e-19 -1.77244 -1.93398 0.0122187 -0.00866711 -2.07864 -0.0712331 -0.47744 3.99977 0.135228 2.03217e-16 0.0 3.88251e-19 -2.72829 -9.04331 0.303218 -0.00826871 10.7977 -0.214921 0.538117 -1.76713 -0.0241706
-219.162 82.1736 -117.201 -6.0808 46.9131 -0.1745 -1.9126 0.942704 -0.781353 -1.16548 0.0431645 -0.35073 0.413926 2.69409 -0.0669373 0.398766 -5.8665 -0.0994834 -0.0 0.0 0.0 -0.0 0.0 0.0 -5.40198e-14 5.67167e-14 6.53128e-14 23.1532 4.913 0.334266 -3.14258 -1.26505 5.07116 0.0106548 2.29004 0.320916 1.91829e-10 -5.58915e-10 2.93958e-10 3.33941e-10 -9.65014e-10 5.05546e-10 1.91836e-10 -5.58915e-10 2.93947e-10 7.73091 5.47488 0.417314 1.91828e-10 -5.58912e-10 2.93954e-10 2.90554 0.965183 0.102902 1.91839e-10 -5.58913e-10 2.93958e-10 10.2786 0.731801 0.0259123 1.91825e-10 -5.58911e-10 2.93961e-10 2.22167 -0.733487 -0.20892 -5.40286e-14 5.67055e-14 6.50406e-14 -22.6473 0.396823 -1.07953 1.73907 -0.577851 -2.90325 -0.000156704 -0.363306 0.0510598 3.49019e-10 -4.16013e-11 1.21301e-10 6.03188e-10 -7.19128e-11 2.10097e-10 3.49016e-10 -4.15962e-11 1.2131e-10 -7.73091 5.47488 -0.417314 3.49019e-10 -4.15983e-11 1.21302e-10 -2.90554 0.965183 -0.102902 3.4901e-10 -4.15977e-11 1.21299e-10 -10.2786 0.731801 -0.0259123 3.49023e-10 -4.1599e-11 1.21291e-10 -2.22167 -0.733487 0.20892 -2.03217e-16 0.0 -3.88251e-19 0.374599 -4.60958 1.53491 0.0154344 5.16337 0.106301 -0.858006 -3.25494 -2.73166 2.03217e-16 0.0 3.88251e-19 -1.97717 -9.28058 1.44822 -0.029128 13.9894 -0.270328 0.661062 -6.01571 0.719632
-219.098 82.172 -117.172 -6.0499 46.9339 -0.1665 -0.777774 1.9367 -1.52142 -1.53403 0.0683446 -0.571607 0.858507 5.54244 -0.138165 0.79707 -12.0694 -0.208317 -0.0 0.0 0.0 -0.0 0.0 0.0 -9.77103e-14 1.21861e-13 1.37823e-13 47.5647 10.1037 0.693155 -6.22197 -2.56922 10.4395 -0.00606616 4.71252 0.662135 5.934e-10 -1.17008e-09 6.14932e-10 1.03045e-09 -2.01997e-09 1.0573e-09 5.93407e-10 -1.17008e-09 6.14922e-10 7.73091 5.47488 0.417314 5.93398e-10 -1.17007e-09 6.14926e-10 2.90554 0.965183 0.102902 5.93409e-10 -1.17007e-09 6.1493e-10 10.2786 0.731801 0.0259123 5.93398e-10 -1.17007e-09 6.14934e-10 2.22167 -0.733487 -0.20892 -9.77324e-14 1.21846e-13 1.37578e-13 -46.5725 0.799011 -2.21614 3.5133 -1.18376 -5.97228 0.000445943 -0.720356 0.10125 9.22155e-10 -8.62207e-11 2.49096e-10 1.59354e-09 -1.49041e-10 4.31469e-10 9.22154e-10 -8.62145e-11 2.49099e-10 -7.73091 5.47488 -0.417314 9.22156e-10 -8.62149e-11 2.49096e-10 -2.90554 0.965183 -0.102902 9.22148e-10 -8.62139e-11 2.49091e-10 -10.2786 0.731801 -0.0259123 9.2216e-10 -8.62147e-11 2.49083e-10 -2.22167 -0.733487 0.20892 -2.03217e-16 0.0 -3.88251e-19 2.79551 -7.4328 3.15839 -0.00893005 12.818 0.300222 -2.05462 -10.8742 -5.83989 2.03217e-16 0.0 3.88251e-19 -1.17285 -9.52953 2.66178 -0.0441119 17.3623 -0.331551 0.912695 -10.5068 1.5242
-219.044 82.1735 -117.129 -6.0869 46.9573 -0.2102 0.257139 2.82265 -2.18656 -1.86294 0.0956697 -0.769686 1.26082 8.08222 -0.202602 1.13263 -17.5993 -0.311466 -0.0 0.0 0.0 -0.0 0.0 0.0 -1.30746e-13 1.70377e-13 1.94845e-13 69.2827 14.7369 1.0331 -8.76355 -3.67641 15.2419 -0.0454651 6.86925 0.968935 8.73562e-10 -1.67442e-09 8.73307e-10 1.51661e-09 -2.89103e-09 1.50184e-09 8.73569e-10 -1.67443e-09 8.73299e-10 7.73091 5.47488 0.417314 8.73559e-10 -1.67442e-09 8.733e-10 2.90554 0.965183 0.102902 8.73569e-10 -1.67442e-09 8.73305e-10 10.2786 0.731801 0.0259123 8.73561e-10 -1.67442e-09 8.73309e-10 2.22167 -0.733487 -0.20892 -1.3078e-13 1.7036e-13 1.94625e-13 -67.8971 1.18878 -3.23921 5.04223 -1.71576 -8.71323 0.00147277 -1.08991 0.153204 1.34516e-09 -1.22486e-10 3.55347e-10 2.32437e-09 -2.11737e-10 6.15508e-10 1.34516e-09 -1.22479e-10 3.55344e-10 -7.73091 5.47488 -0.417314 1.34516e-09 -1.22478e-10 3.55345e-10 -2.90554 0.965183 -0.102902 1.34515e-09 -1.22477e-10 3.55338e-10 -10.2786 0.731801 -0.0259123 1.34516e-09 -1.22477e-10 3.5533e-10 -2.22167 -0.733487 0.20892 -2.03217e-16 0.0 -3.88251e-19 5.10063 -9.93378 4.63505 -0.0770489 19.6468 0.488416 -3.87004 -17.5761 -8.86866 2.03217e-16 0.0 3.88251e-19 -0.446116 -9.74318 3.74294 -0.050935 20.3728 -0.389033 1.24737 -14.5034 2.26762
-218.981 82.1743 -117.08 -6.0989 46.9885 -0.2333 0.993795 3.44016 -2.6622 -2.09308 0.128361 -0.910767 1.54399 9.85061 -0.248362 1.35731 -21.4469 -0.387991 -0.0 0.0 0.0 -0.0 0.0 0.0 -1.37144e-13 1.77325e-13 2.13147e-13 84.3912 17.9786 1.29755 -10.4257 -4.40411 18.6023 -0.0865429 8.36242 1.18376 8.502e-10 -1.91173e-09 9.75187e-10 1.4769e-09 -3.30235e-09 1.67837e-09 8.50208e-10 -1.91173e-09 9.7518e-10 7.73091 5.47488 0.417314 8.50197e-10 -1.91172e-09 9.7518e-10 2.90554 0.965183 0.102902 8.50206e-10 -1.91172e-09 9.75185e-10 10.2786 0.731801 0.0259123 8.502e-10 -1.91172e-09 9.7519e-10 2.22167 -0.733487 -0.20892 -1.37188e-13 1.77307e-13 2.12948e-13 -82.7482 1.54891 -3.97794 6.081 -2.07989 -10.6307 0.00272634 -1.49075 0.209558 1.39282e-09 -1.37868e-10 4.07734e-10 2.40641e-09 -2.38351e-10 7.06219e-10 1.39283e-09 -1.37861e-10 4.07728e-10 -7.73091 5.47488 -0.417314 1.39283e-09 -1.37859e-10 4.07731e-10 -2.90554 0.965183 -0.102902 1.39282e-09 -1.37858e-10 4.07724e-10 -10.2786 0.731801 -0.0259123 1.39283e-09 -1.37858e-10 4.07715e-10 -2.22167 -0.733487 0.20892 -2.03217e-16 0.0 -3.88251e-19 6.81017 -11.6537 5.69604 -0.153699 24.4114 0.634915 -5.64296 -22.1652 -11.2858 2.03217e-16 0.0 3.88251e-19 0.0658804 -9.87738 4.48963 -0.0517683 22.4778 -0.43099 1.54515 -17.2728 2.80281
-218.901 82.1762 -117.045 -6.0487 47.0596 -0.2256 1.29286 3.68519 -2.87564 -2.18613 0.171126 -0.973164 1.65162 10.5416 -0.267335 1.45131 -22.9482 -0.418123 -0.0 0.0 0.0 -0.0 0.0 0.0 -9.25437e-14 1.11355e-13 1.35794e-13 90.3055 19.2752 1.43915 -11.0566 -4.67887 19.9283 -0.10517 8.92428 1.26525 3.54812e-10 -1.58577e-09 7.4118e-10 6.18602e-10 -2.74273e-09 1.27822e-09 3.54819e-10 -1.58577e-09 7.41176e-10 7.73091 5.47488 0.417314 3.54808e-10 -1.58576e-09 7.41176e-10 2.90554 0.965183 0.102902 3.54817e-10 -1.58576e-09 7.4118e-10 10.2786 0.731801 0.0259123 3.5481e-10 -1.58576e-09 7.41186e-10 2.22167 -0.733487 -0.20892 -9.25917e-14 1.11338e-13 1.35614e-13 -88.5493 1.88156 -4.32172 6.48693 -2.21963 -11.3917 0.00439659 -1.97423 0.277549 8.10973e-10 -1.11217e-10 3.88527e-10 1.40035e-09 -1.92338e-10 6.72743e-10 8.10973e-10 -1.11213e-10 3.88521e-10 -7.73091 5.47488 -0.417314 8.10975e-10 -1.11211e-10 3.88521e-10 -2.90554 0.965183 -0.102902 8.1097e-10 -1.1121e-10 3.88516e-10 -10.2786 0.731801 -0.0259123 8.10981e-10 -1.1121e-10 3.88506e-10 -2.22167 -0.733487 0.20892 -2.03217e-16 0.0 -3.88251e-19 7.55173 -12.2975 6.14674 -0.190885 26.2872 0.70034 -6.57445 -23.9413 -12.5268 2.03217e-16 0.0 3.88251e-19 0.266252 -9.90519 4.76123 -0.0510784 23.3155 -0.447769 1.67753 -18.3251 3.01038
-218.862 82.1778 -116.981 -6.1835 47.0704 -0.3371 1.27408 3.66441 -2.90111 -2.18129 0.220966 -0.979307 1.63255 10.4628 -0.266792 1.45752 -22.7732 -0.41226 -0.0 0.0 0.0 -0.0 0.0 0.0 -1.21682e-14 -5.99961e-15 -7.911e-15 89.6688 19.1828 1.48597 -10.9956 -4.6526 19.7965 -0.102067 8.82124 1.25032 -4.75497e-10 -8.66494e-10 2.72815e-10 -8.20474e-10 -1.50515e-09 4.75769e-10 -4.7549e-10 -8.66496e-10 2.72816e-10 7.73091 5.47488 0.417314 -4.75501e-10 -8.66488e-10 2.72815e-10 2.90554 0.965183 0.102902 -4.75492e-10 -8.66488e-10 2.72818e-10 10.2786 0.731801 0.0259123 -4.75501e-10 -8.66488e-10 2.72825e-10 2.22167 -0.733487 -0.20892 -1.22178e-14 -6.01259e-15 -8.07252e-15 -87.8904 2.19437 -4.38315 6.45331 -2.20255 -11.3262 0.00709781 -2.51488 0.353638 -2.15581e-10 -5.51529e-11 3.18e-10 -3.74367e-10 -9.55011e-11 5.50254e-10 -2.15582e-10 -5.51534e-11 3.17996e-10 -7.73091 5.47488 -0.417314 -2.1558e-10 -5.51515e-11 3.1799e-10 -2.90554 0.965183 -0.102902 -2.15584e-10 -5.51507e-11 3.17988e-10 -10.2786 0.731801 -0.0259123 -2.15572e-10 -5.51519e-11 3.17977e-10 -2.22167 -0.733487 0.20892 -2.03217e-16 0.0 -3.88251e-19 7.56849 -12.1775 6.15242 -0.186027 26.0996 0.700194 -6.68585 -23.7582 -12.8132 2.03217e-16 0.0 3.88251e-19 0.242366 -9.85793 4.69342 -0.051003 23.2479 -0.445637 1.66419 -18.153 2.97275
